<svg xmlns="http://www.w3.org/2000/svg" width="160" height="160" fill="none" viewBox="0 0 160 160">
  <g clip-path="url(#a)">
    <path fill="#66309A" d="M114.56 1.414c1.949-.224 5.219-.176 6.986.672 3.513 1.693 4.467 6.413 2.605 9.658-2.384 4.144-6.666 2.94-10.551 3.35-3.629.384-9.283 1.354-12.48 3.028-1.811.95-2.518 1.833-4.025 2.947-1.994 1.481-5.888 3.99-5.604 6.771.298 2.909 3.21 6.66 5.124 8.784 5.884 6.54 7.145 7.229 14.48 11.75l16.585 9.767 10.186 7.536c5.283 3.888 8.288 5.264 13.056 10.531 2.512 2.775 3.779 5.373 5.536 8.592 1.603 2.944 1.805 4.144 2.454 7.36.992 4.922 1.188 6.247-.236 11.2-.42 1.456-1.226 3.552-2.071 4.794-.694 1.024-1.152 1.299-1.926 2.112-3.581 3.757-3.626 3.965-8.439 5.984-2.525 1.062-3.43 1.715-6.345 1.757l-5.495-.196c-2.96-.246-4.198.269-6.557-2.188-2.275-2.372-2.217-7.402.192-9.62 1.642-1.51 3.303-1.68 5.405-1.683h1.6c1.392.01 3.187.25 4.48-.192.819-.278 3.485-1.446 4.103-1.958 2.528-2.099 2.428-4.896 1.769-7.77-1.206-5.248-4.893-9.67-9.072-12.912l-8.925-6.397-1.705-1.475-8.659-5.897-3.722-1.981-11.318-6.906-4.07-2.41c-4.353-2.94-9.802-8.13-13.04-12.275-4.209-5.385-7.88-12.108-7.063-19.184.813-7.03 6.707-11.757 12.048-15.677 2.761-2.025 3.152-2.736 6.454-4.128l3.84-1.57 10.88-1.934 3.52-.24ZM62.4 119.68c.967-.793 1.658-.576 2.88-.88 1.965-.483 3.968-.966 5.706-2.048l9.92-8.086c1.568-1.29 2.464-2.599 4.534-3.251 3.923-1.239 8.458 1.366 8.861 5.536.566 5.868-4.86 8.425-8.726 11.657l-4.11 3.591-6.08 3.849c-3.8 1.907-9.363 3.05-13.625 2.887l-4.8-.231c-2.496-.355-5.54-1.552-8-2.281l-2.56-.644c-3.401-1.008-6.896-3.046-9.92-4.848l-2.851-1.558c-6.336-3.971-11.415-9.354-15.978-15.216l-6.15-7.997c-2.867-4.483-4.82-9.171-6.784-14.08l-1.319-3.2-1.283-5.12-1.001-3.2C.637 72.24.004 65.162 0 62.72v-3.84c.006-3.558.81-5.408 1.987-8.64l1.821-5.091c1.27-2.685 6.278-9.482 8.448-11.398l1.77-1.258 1.987-1.651c3.229-2.32 7.718-3.891 11.507-5.03l3.2-1.002 2.24-.317 2.851-.647 4.83-.579c2.015-.313 5.193-1.037 7.177-.851 4.326.406 7.001 2.454 6.899 7.024-.154 6.567-5.974 6.493-10.877 7.056-3.978.454-13.882 2.525-17.28 4.24-2.957 1.491-5.475 3.767-7.578 6.304-2.835 3.42-3.29 5.27-4.608 9.28-.272.832-.758 2.06-.867 2.88-.217 1.639.189 5.645.455 7.36.588 3.795 1.248 8.198 2.473 11.84l1.232 2.88c1.175 3.008 3.107 7.923 4.829 10.56l6.547 8.32c2.884 3.536 5.165 6.877 9.05 9.543 2.355 1.619 9.344 5.878 11.856 6.787l8.611 2.39c1.594.359 2.275.067 3.84.8Zm6.72-40-4.48-1.632-8.32-2.045-8-1.408-4.8-1.484c-4.278-1.13-9.094-2.17-11.184-6.55-2.029-4.26.394-9.412 2.986-12.89 2.342-3.146 7.241-8 10.441-10.308l4.388-2.656c.924-.585 1.215-.95 2.33-1.49 1.573-.762 7.221-2.183 8.96-2.065 6.84.47 11.26 8.554 5.09 13.255-2.845 2.163-5.597.467-8.29 1.37-2.487.831-2.234 1.231-3.588 2.313l-2.118 1.446C50.89 56.906 49.41 58.56 48 60.16c4.394 1.66 9.216 2.07 13.76 3.159 1.543.367 4.087.387 5.12 1.641 1.757-.227 3.495.531 5.12 1.146 4.986 1.875 9.427 5.833 10.429 11.334.118 1.047.06 2.557 0 3.655.058 1.478-.102 3.61-.614 4.985-.688 1.853-3.808 6.096-5.296 7.418-1.703 1.513-6.529 4.646-8.679 5.597-4.051 1.788-8.013 2.294-11.626-.733-.69-.58-1.433-1.133-1.942-1.888-3.203-4.736-.06-11.395 5.888-11.018 1.418.093 2.007.624 2.88.47 1.373-.243 4.928-3.25 5.62-4.537.306-.566.355-1.091.46-1.709Zm-56 51.424c2.656-.598 5.715.231 7.462 2.429 3.015 3.798.912 9.357-3.622 10.774-4.746 1.485-10.18-3.305-8.077-9.267.704-1.987 2.384-3.12 4.237-3.936Z"/>
  </g>
  <defs>
    <clipPath id="a">
      <path fill="#fff" d="M0 0h160v160H0z"/>
    </clipPath>
  </defs>
</svg>
