<svg xmlns="http://www.w3.org/2000/svg" width="160" height="160" fill="none" viewBox="0 0 160 160">
  <path stroke="#FFC100" stroke-linecap="round" stroke-width="5" d="M10.767 44.12c.131-.524 3.22-.806 3.824-.806h14.245c4.014 0 7.766.74 11.74 1.208 2.16.254 4.333.32 6.485.604 1.284.169 2.596.177 3.868.425 1.083.21 2.014.537 3.131.581 1.42.056 2.795.663 4.226.783 2.486.207 4.96.52 7.447.738 5.164.45 10.423.895 15.43 2.303 2.53.711 4.99 1.5 7.558 2.124 3.414.83 6.875 1.468 10.175 2.706 3.926 1.473 7.688 3.499 11.695 4.718 3.523 1.073 6.883 1.983 10.242 3.534 1.613.744 3.451 1.496 4.964 2.415 1.375.834 2.756 1.638 4.115 2.504 2.64 1.684 5.291 2.979 8.14 4.294 1.977.912 3.51 2.405 5.367 3.488.957.559 1.764 1.486 2.392 2.393 2.115 3.055 4.165 5.9 6.731 8.565 1.64 1.703 2.381 4.044 2.326 6.395-.062 2.687-1.769 5.083-2.594 7.559-.401 1.202-.518 2.48-1.431 3.443-.864.913-1.759 1.882-2.795 2.594-2.756 1.895-4.989 3.369-8.341 4.07-2.113.443-4.266.57-6.396.895-2.931.447-5.839.894-8.811.894-12.003 0-24.056.568-35.958-1.207-3.454-.515-6.788-1.063-10.152-2.013-3.845-1.085-7.734-2.337-11.673-3.019-2.38-.412-4.703-.819-7.022-1.498-2.855-.836-5.614-2.416-8.184-3.869-2.565-1.45-5.362-2.48-7.961-3.89-2.447-1.33-5-2.456-7.469-3.735-1.517-.785-2.893-1.896-4.405-2.728-1.641-.903-3.41-1.865-4.898-2.997-2.637-2.006-6.029-3.3-8.363-5.635l-2.728-2.728c-1.029-1.029-1.632-2.213-2.527-3.332-1.083-1.354-2.25-2.675-3.153-4.16-.774-1.271-1.257-2.687-2.057-3.958-.596-.945-.853-2.119-1.41-3.108-.56-.997-.726-2.39-1.408-3.242-1.492-1.865-.956-4.668-1.409-6.843-.397-1.907-.336-4.056.179-5.859.144-.502-.069-1.077.045-1.588.108-.488.831-1.436 1.185-1.811 1.378-1.459 2.98-1.207 4.83-1.207"/>
  <path stroke="#FFC100" stroke-linecap="round" stroke-width="5" d="M24.05 129.453v-1.856c0-1.669.523-3.117.805-4.741.29-1.671.934-3.45 1.431-5.076.611-2 1.328-4.292 2.415-6.082.844-1.39 1.176-2.925 1.879-4.383.953-1.977 1.333-4.233 2.415-6.128.645-1.128 1.257-2.487 2.013-3.533 1.095-1.516 2.43-2.85 3.443-4.427 1.77-2.758 3.32-5.613 4.942-8.453.904-1.582 2.048-3.38 3.198-4.786 1.032-1.261 2.226-2.226 3.019-3.69.963-1.777 2.024-3.5 3.064-5.232.589-.983 1.364-1.83 1.945-2.818.554-.942.985-1.924 1.655-2.795 1.303-1.694 2.208-3.59 3.466-5.3a267.71 267.71 0 0 1 4.338-5.77c2.422-3.114 4.436-6.737 6.44-10.13 2.136-3.613 5.05-6.634 7.648-9.883 1.921-2.401 4.303-4.644 6.485-6.798 1.837-1.813 4.087-3.339 6.217-4.786 5.504-3.738 10.573-7.612 17.129-9.347 3.206-.849 5.712-2.975 8.833-3.936 1.407-.433 3.298-1.526 4.83-1.185 1.609.357 2.521 2.297 3.601 3.377 2.023 2.023 2.247 5.088 3.041 7.67.621 2.017.805 4.039.805 6.15 0 1.328.208 2.595.492 3.89.395 1.799.313 3.627.313 5.457 0 1.538.065 3.093-.022 4.628-.141 2.47-1.012 4.915-1.789 7.246-1.237 3.711-2.426 7.262-4.003 10.845-3.685 8.375-7.497 16.922-13.328 24.107-3.004 3.7-6.587 7.44-8.945 11.583-1.471 2.586-4.014 4.688-5.948 6.932-1.973 2.291-3.815 4.552-6.038 6.62-1.883 1.751-3.513 3.625-5.523 5.255a144.574 144.574 0 0 1-7.469 5.635c-5.182 3.67-10.893 6.77-16.391 9.929-2.522 1.448-5.202 2.595-7.76 3.98-1.505.815-3.25 1.787-4.897 2.236-4.298 1.172-8.348 3.442-12.836 4.003-2.426.303-4.93.447-7.38.447-1.588 0-3.18-.492-4.025-2.012-.679-1.223-.313-3.169-.313-4.517 0-.978-.225-2.277.09-3.221.247-.743.715-1.107.715-1.923"/>
  <path stroke="#FFC100" stroke-linecap="round" stroke-width="5" d="M75.572 135.491c-.722-.723-.866-1.359-1.274-2.304-.969-2.239-2.288-4.315-3.064-6.641-1.227-3.681-1.48-7.662-2.706-11.338-.91-2.731-1.202-5.64-1.43-8.497-.27-3.357-1.358-6.716-1.902-10.04-.44-2.688-.894-5.144-.894-7.872 0-.913.01-1.748-.201-2.639-.294-1.233-.756-2.545-.962-3.78-.95-5.697-1.526-11.477-2.661-17.15-1.138-5.691-.102-11.632-1.811-17.264-1.914-6.305-2.678-12.871-2.818-19.455-.03-1.448-.402-2.823-.402-4.294v-4.472c0-3.467-.134-6.568 1.006-9.862.606-1.75.933-3.25 2.616-4.092 1.94-.97 3.586-.72 5.613-.112 1.67.501 3.367.894 5.031 1.409.964.298 1.759.327 2.483 1.051.783.783 1.407 1.642 2.258 2.348 1.326 1.1 2.702 2.243 3.936 3.444 5.127 4.988 8.886 11.23 12.254 17.487 2.26 4.195 4.353 8.534 5.814 13.082 1.658 5.155 3.107 10.405 4.965 15.496 2.076 5.69 3.131 12.112 4.137 18.069 1.051 6.228 2.68 12.528 4.36 18.605.748 2.704.894 5.529 1.678 8.252.875 3.04 2.177 6.359 2.526 9.504.344 3.092.571 6.119 1.051 9.213.384 2.472.246 4.997.246 7.491 0 2.655.207 5.394-.492 7.983-.581 2.156-.776 4.429-1.52 6.53-.294.831-.364 1.732-.805 2.505-.188.328-.783.365-1.096.469-1.181.394-2.329.889-3.488 1.342-3.693 1.441-7.933 1.426-11.852 1.185-2.53-.155-5.576-.457-7.984-1.342-2.086-.766-3.832-2.025-5.59-3.354-1.56-1.179-2.98-2.488-4.36-3.869-1.214-1.213-2.024-2.531-3.064-3.868-1.474-1.896-2.315-4.327-4.025-6.038"/>
  <path stroke="#FFC100" stroke-linecap="round" stroke-width="5" d="M75.572 76.32c0 .897-.211 2.013 1.007 2.013 1.126 0 1.732-.577 1.386-1.789-.187-.654-.38 1.147-.38 1.297 0 .909.273 1.741.872 2.46 1.158 1.39 3.689.618 5.12.045.7-.28.85-.96.85-1.633 0-1.402.393-3.501-.402-4.718-.456-.698-1.962-.72-2.504-.179-.63.63-.55 2.136-.805 2.997-.272.915-.825 2.6.402 3.041 2.248.81 2.486-4.33 1.879-5.546-1.13-2.26-3.802-2.056-3.802.604v3.51c0 .804.082 1.357 1.006 1.5.737.112 1.44.092 1.722-.694.258-.716.298-2.552-.268-3.086-.778-.734-5.278-2.744-5.278-.626"/>
</svg>
