<svg width="160" height="160" viewBox="0 0 160 160" fill="none" xmlns="http://www.w3.org/2000/svg">
<g clip-path="url(#clip0_3_2)">
<path d="M10.6667 76.8002C-1.01333 72.9068 -0.0213261 62.6988 0.224008 52.2668C7.25123e-06 50.2188 -0.0853262 46.7308 0.224008 44.8428C3.20001 35.3174 20.2347 36.3414 23.4667 35.1894L39.1787 25.4614C44.4161 21.3014 41.0028 15.0827 49.0881 11.1254C56.4481 7.50935 67.5308 6.53868 70.4001 16C73.1201 14.432 75.6908 12.6934 78.8375 12.1707C86.1868 10.944 94.3575 16.6614 101.334 18.0374C106.806 19.136 111.115 15.6374 117.334 18.0374C126.603 21.5574 132.427 38.2827 128 46.9334C133.963 52.6081 139.627 70.6028 140.8 78.9335C159.766 68.4801 162.539 98.0909 158.752 105.6C157.152 108.758 148.267 116.918 144.971 118.4C142.123 119.67 139.627 119.296 136.928 121.312L121.067 135.648C118.678 138.635 118.55 141.728 115.062 143.83C113.163 144.971 108.043 145.91 105.6 146.582C100.683 147.936 90.0055 151.414 85.3335 150.87C78.9655 150.134 76.6935 146.656 73.4188 145.824L57.6001 145.067C52.7041 161.408 27.6481 149.878 23.9254 141.856C20.1387 133.664 27.7014 130.635 22.4001 118.4C9.03469 121.024 8.92802 112.768 6.09069 104.534C4.41602 99.6909 2.32535 96.0855 3.64801 90.6668C4.99202 85.1202 8.19202 84.7042 10.6667 76.8002ZM27.8294 64.0001V80.0002C29.2481 90.9975 34.9974 105.12 41.8774 113.664C45.1734 117.771 48.3734 122.198 53.3441 124.384C66.3681 130.123 89.1415 124.608 102.4 120.843C109.003 118.966 115.094 118.027 119.926 112.576C123.531 108.512 125.728 96.0535 125.142 90.6668L122.528 80.0002C117.579 60.2135 117.398 61.6215 104.406 45.9201C99.1362 39.5521 93.1309 32.9494 84.2668 32.3201C79.1255 31.9467 54.9868 37.5681 50.1334 39.8934C46.9761 41.4081 42.3681 44.8001 39.4667 46.9441C34.6774 50.4961 27.7761 56.3094 29.8667 62.9335C32.8427 57.4401 33.5574 58.0161 38.2401 54.4428C47.3921 47.4561 46.6454 48.0961 57.6001 45.3654C63.0188 44.0001 73.8135 40.3734 78.9335 40.8961C91.6375 42.1974 97.0242 50.6881 100.267 61.8668C100.971 64.3095 102.059 67.9041 102.123 70.4001C102.24 76.0855 98.1122 80.3522 96.0002 85.3335C101.291 87.4348 111.168 90.4215 114.411 95.0722C119.062 101.728 112.523 108.96 107.286 108.736C104.043 108.587 96.8322 105.046 93.8669 103.467L74.6668 92.9495C70.8375 90.4108 67.1255 87.5948 67.8721 82.4322C68.8535 75.6802 77.7922 71.9255 83.2002 69.3335C82.5388 65.3868 81.7388 61.9521 77.8135 59.9361C71.3068 56.5974 56.1601 63.8295 51.2001 68.2668L64.8535 100.267C65.8455 103.147 68.8001 109.622 68.0855 112.299C65.9948 120.128 55.8294 121.376 51.3388 114.998C48.2668 110.635 45.4081 99.2535 43.1041 93.8669C39.1041 84.4908 32.0214 73.6961 29.8667 64.0001H27.8294Z" fill="#B7410E"/>
</g>
<defs>
<clipPath id="clip0_3_2">
<rect width="160" height="160" fill="white"/>
</clipPath>
</defs>
</svg>
