<svg xmlns="http://www.w3.org/2000/svg" width="160" height="160" fill="none" viewBox="0 0 160 160">
  <path stroke="#CF649B" stroke-linecap="round" stroke-width="10" d="M8.006 151.415v.805"/>
  <path stroke="#CF649B" stroke-linecap="round" stroke-width="12" d="M30.145 43.943c.256 0 1.045.235 1.207.045.707-.83 1.22-2.293 1.677-3.22.983-1.99 1.916-3.989 2.661-6.083 1.725-4.846 2.167-9.359 2.102-14.445-.028-2.204-.7-3.424-2.236-4.875-1.426-1.347-4.611 1.178-5.836 1.856-4.465 2.471-8.982 5.633-12.009 9.794-3.595 4.944-5.294 11.308-6.239 17.264-.491 3.1-.648 6.191-.648 9.325 0 3.206-.005 6.507.894 9.615.893 3.084 3.033 5.923 5.77 7.626 2.475 1.54 5.392 1.803 8.229 1.99 6.123.405 12.468.28 18.56-.402 3.463-.389 7.146-1.204 10.645-1.119.673.017 1.394.625 1.7 1.208.484.925.64 2.219.894 3.22.583 2.304 1.278 4.62 1.61 6.977.898 6.385.402 13.063.402 19.5 0 3.378-.082 6.316-1.297 9.504a106.556 106.556 0 0 1-5.165 11.516c-2.53 4.829-5.9 9.22-9.303 13.462-2.186 2.724-4.647 5.222-6.73 8.028-1.146 1.542-2.43 3.061-3.467 4.674-.44.685-.43 1.449-.805 2.124-.269.483-.586-1.232-.604-1.319m42.667-77.686c0 .824-.153 1.396-.403 2.191-.758 2.42-.402 5.168-.402 7.67 0 4.436.42 8.298 2.504 12.278 1.276 2.434 4.578 3.622 7.156 3.622 1.509 0 2.561-.805 4.025-.805m7.246-34.214c-2.09 2.09-2.197 6.784-.895 9.258.503.954 1.11.805 2.102.805 2.192 0 4.268.26 6.441.38 1.786.1 3.945-.163 5.456 1.074 1.784 1.46 2.659 3.175 3.175 5.389.356 1.523.224 3.145.224 4.696 0 2.013.185 3.939-.671 5.814-1.886 4.131-5.27 6.714-8.587 9.616m24.956-59.573c0-1.01.495-1.87.805-2.817a261.174 261.174 0 0 0 2.907-9.527c.269-.94.869-2.106.939-3.086.025-.339-.535.42-.805.627-2.381 1.82-3.959 4.48-5.389 7.088-4.238 7.728-6.91 16.29-6.91 25.158 0 7.623 9.27 6.876 14.58 6.306 3.362-.361 7.552-1.022 10.913-.224 2.574.612 4.443 3.278 5.098 5.68 2.731 10.012-1.62 20.067-5.769 29.004-1.722 3.708-3.675 7.074-5.836 10.532-.65 1.039-1.227 2.124-2.147 2.952-2.772 2.495-6.423 3.875-9.772 5.389-.694.314-5.417 3.059-5.859 2.617"/>
</svg>
