<svg xmlns="http://www.w3.org/2000/svg" width="534" height="534" fill="none" viewBox="0 0 534 534">
  <path fill="#CF649B" d="m91.733 100.267 34.134-16.33 25.6-14.273 21.333-7.659 12.8-6.058L232.534 40l30.933-5.077 11.733-2.646c11.414-2.122 25.75-3.605 37.334-3.477l45.866 7.925 16 5.323c4.96.81 13.878-1.675 20.267 0 5.184 1.792 16.075 9.813 21.333 12.939l11.734 6.432c13.386 7.541 13.962 4.544 22.4 8.586C459.638 74.56 472.47 87.168 478.187 96c6.507 10.037 11.072 25.781 15.339 37.333l8.106 22.4 4.011 16 4.704 11.734c2.496 6.997 3.659 15.093 4.939 22.4l3.882 17.067 2.614 27.733 3.626 20.267.779 10.666c1.269 8.896 4.896 16.192 5.013 25.6.118 10.059-.96 41.291-2.848 50.134l-6.4 20.266c-2.293 6.88-5.898 19.051-10.357 24.438-2.144 2.592-10.784 11.221-13.461 12.821l-19.2 7.872-17.067 8.341L432 442.966l-26.666 11.338-23.467 6.4-16 5.867-39.467 10.101-41.6 11.776h-10.666l-40.534 5.504c-15.477 2.614-16.149 5.579-26.666 8.534-7.787 2.186-33.633 6.218-41.601 6.314-13.76.16-20.65.331-34.133-4l-19.2-8.32c-4.192-1.696-13.856-4.213-16.843-6.56-3.712-2.922-3.712-6.474-7.914-10.176-7.136-6.293-9.856-4.661-17.803-16.81-9.099-13.92-12.373-30.283-17.195-45.867l-6.592-22.4-4.96-14.933-8.896-39.467-4.928-32-9.536-34.133-5.29-13.867c-2.144-9.781-1.259-19.925-1.376-29.867l-1.067-16v-12.8l2.037-32-8.832-37.333c-1.162-4.63-2.965-10.208-2.613-14.934.341-4.544 2.005-11.178 4.768-14.837 12.203-16.192 47.744-18.261 66.507-18.23 11.872.022 17.93 3.553 20.266 16.001Zm267.734-46.934c-5.227-5.322-17.195-5.781-24.533-7.253-7.488-1.493-24.928-4.779-32-4.384L262.4 48.619l-37.333 7.072-43.734 16.992-22.4 8.661-38.4 20.779-29.866 13.408-32 17.834c-8.47 5.771-22.72 17.622-27.339 26.635-6.07 11.872-5.77 21.547-6.88 34.133-.864 8.022-2.133 17.782 0 25.601h2.219L38.73 179.2c4.053-8.907 13.226-19.232 19.776-26.667 6.368-7.242 14.112-16.704 21.493-22.602 14.261-11.414 28.043-13.654 44.8-18.699l39.467-12.64 19.2-4.117 12.8-4.107L224 82.645l29.867-5.845 29.867-7.093 21.333-6.891 39.467-6.741 14.933-2.742Z"/>
  <path fill="#7E2854" d="M23.467 219.733c0-18.293-.534-46.037 9.045-61.866 3.83-6.336 10.87-12.427 16.555-17.152 16.074-13.366 36.512-22.624 55.466-31.168L160 80.832l21.333-8.31 44.801-17.14 25.6-4.833c13.045-2.442 42.762-9.354 54.4-8.906 7.605.298 20.053 2.688 27.733 4.224 6.272 1.258 22.165 2.474 25.6 7.466l-14.933 2.742-39.467 6.901-21.333 6.89L272 72.16l-21.333 5.28L224 82.645l-11.733 3.595-16 4.128-11.734 3.861-21.333 4.694-38.4 12.309c-13.408 4.043-27.605 6.869-39.467 14.741-8.384 5.579-20.053 18.72-26.805 26.56-7.445 8.64-16.405 18.187-20.715 28.8l-8.234 27.734c-1.355 5.152-.608 8.757-6.112 10.666Z"/>
  <path stroke="#fff" stroke-linecap="round" stroke-width="25" d="M168.105 301.086c-.343-3.088-6.243-7.444-8.796-8.796-3.645-1.93-9.21-5.963-13.343-5.963-10.917 0-24.192 1.118-29.89 12.076-2.92 5.615-7.69 9.982-9.69 16.1-2.662 8.143-2.076 19.814-.522 28.102 3.577 19.076 21.714 27.081 39.432 25.269 7.536-.771 17.812-.89 24.449-5.069 5.768-3.632 12.546-2.683 19.082-2.683 5.03 0 8.081 8.134 9.466 11.852 3.594 9.647 5.077 23.143 3.057 33.468-1.838 9.393-7.374 13.008-14.908 18.188-8.31 5.713-15.592 6.261-25.195 6.261-5.237 0-10.067-1.342-15.281-1.342-3.175 0-5.691-1.341-8.721-1.341m111.363-111.363c-.432-3.453-4.567.369-5.367 1.64-2.337 3.711-3.904 9.672-5.069 13.864-2.252 8.107-2.981 16.006-2.981 24.449 0 2.489-.255 5.132.074 7.603.261 1.955 1.657 3.284 2.311 5.069 1.63 4.447 2.494 10.947 6.709 13.865 1.202.832 2.349.381 3.652.67 1.883.419 3.404 2.645 4.994 3.653 3.457 2.192 5.364 2.982 9.392 2.982 1.32 0 3.038.292 4.324-.075.961-.275 1.2-1.757 2.087-2.311 1.96-1.225 3.763-3.872 5.367-5.665 2.208-2.468 1.052-6.429 2.385-9.392 1.54-3.422 1.64-6.767 1.64-10.435v-7.902c0-1.932.465-4.522-.075-6.41-.347-1.215-1.149-1.656-1.267-3.131-.203-2.533-1.238-4.61-1.342-7.305-.179-4.66-2.683-8.81-2.683-13.715 0-2.977.454-6.334-.075-9.243-.184-1.014-1.199-1.085-1.267-2.236-.065-1.109 0-2.243 0-3.355 0-3.645-2.962-6.271-4.696-9.392-1.111-1.999-.935-4.811-2.683-6.559-1.049-1.049-.431 2.978-.373 3.205.658 2.558 1.924 4.728 2.385 7.38.822 4.724 4.232 8.306 5.218 12.746.794 3.57.204 6.599 1.491 10.137 1.102 3.031 2.683 4.757 2.683 8.051 0 4.498 3.641 7.07 5.964 10.659 2.514 3.886 3.97 8.364 6.857 12.075 1.874 2.409 4.553 3.286 6.634 5.367 7.391 7.391 18.184 14.088 28.847 14.088m14.759-132.83h-6.038c-2.99 0-3.566 1.012-6.037 2.385-2.242 1.246-3.908 2.978-6.038 4.398-1.564 1.043-2.159 3.155-2.683 4.845a362.97 362.97 0 0 0-4.1 14.312c-1.255 4.724-.596 10.053-.596 14.908 0 2.77 2.509 4.966 4.025 7.156 2.272 3.283 5.776 3.744 9.541 4.323 2.751.423 5.56.703 8.274 1.342 1.443.34 2.414 1.285 3.95 1.342 11.77.435 23.697-1.718 34.587 3.727 4.083 2.041 7.453 7.313 9.988 11.031a115.7 115.7 0 0 1 9.541 16.847c1.392 3.028.597 7.458.597 10.733 0 4.47-1.318 7.512-4.025 11.032-1.444 1.877-4.031 2.646-5.964 3.876-2.4 1.528-5.288 5.11-8.124 5.74-1.863.414-4.134.074-6.038.074m63.061-151.614c-3.053.339-6.321 4.365-8.722 6.038-4.891 3.409-10.494 6.083-13.417 11.479-4.904 9.055-6.084 21.263-4.398 31.381 1.377 8.257 8.515 19.918 17.741 20.797 3.534.337 6.707 1.416 10.286 1.416 5.487 0 9.859 1.798 15.132 2.609 3.145.484 3.593 1.307 5.441 3.802 2.778 3.749 6.671 6.366 9.094 10.584 5.326 9.27 7.182 22.822 6.336 33.394-1.205 15.063-12.957 18.949-25.418 22.064"/>
</svg>
